<?xml version="1.0" encoding="UTF-8" standalone="no"?>
<!-- Generator: Adobe Illustrator 16.0.0, SVG Export Plug-In . SVG Version: 6.00 Build 0)  -->

<svg
   xmlns:dc="http://purl.org/dc/elements/1.1/"
   xmlns:cc="http://creativecommons.org/ns#"
   xmlns:rdf="http://www.w3.org/1999/02/22-rdf-syntax-ns#"
   xmlns:svg="http://www.w3.org/2000/svg"
   xmlns="http://www.w3.org/2000/svg"
   xmlns:sodipodi="http://sodipodi.sourceforge.net/DTD/sodipodi-0.dtd"
   xmlns:inkscape="http://www.inkscape.org/namespaces/inkscape"
   version="1.1"
   id="Layer_1"
   x="0px"
   y="0px"
   width="22.844"
   height="22.843"
   viewBox="0 0 22.843999 22.843"
   enable-background="new 0 0 595.28 841.89"
   xml:space="preserve"
   sodipodi:docname="Back.svg"
   inkscape:version="0.92.5 (2060ec1f9f, 2020-04-08)"><metadata
   id="metadata971"><rdf:RDF><cc:Work
       rdf:about=""><dc:format>image/svg+xml</dc:format><dc:type
         rdf:resource="http://purl.org/dc/dcmitype/StillImage" /><dc:title></dc:title></cc:Work></rdf:RDF></metadata><defs
   id="defs969" /><sodipodi:namedview
   pagecolor="#ffffff"
   bordercolor="#666666"
   borderopacity="1"
   objecttolerance="10"
   gridtolerance="10"
   guidetolerance="10"
   inkscape:pageopacity="0"
   inkscape:pageshadow="2"
   inkscape:window-width="1920"
   inkscape:window-height="991"
   id="namedview967"
   showgrid="false"
   inkscape:zoom="2.2425732"
   inkscape:cx="-75.247328"
   inkscape:cy="77.493793"
   inkscape:window-x="0"
   inkscape:window-y="28"
   inkscape:window-maximized="1"
   inkscape:current-layer="Layer_1" />


























































<g
   id="g512"
   transform="translate(-469.797,-423.91)">
	<path
   d="m 481.221,423.91 c -6.299,0 -11.424,5.122 -11.424,11.42 0,6.299 5.125,11.423 11.424,11.423 6.297,0 11.42,-5.124 11.42,-11.423 0,-6.298 -5.123,-11.42 -11.42,-11.42 z m 0,22.024 c -5.846,0 -10.604,-4.758 -10.604,-10.604 0,-5.845 4.758,-10.6 10.604,-10.6 5.844,0 10.602,4.755 10.602,10.6 -10e-4,5.846 -4.759,10.604 -10.602,10.604 z"
   id="path508"
   inkscape:connector-curvature="0"
   style="fill:#ffffff" />
	<path
   d="m 484.211,429.633 c -0.16,-0.159 -0.418,-0.159 -0.578,0 l -5.695,5.697 5.695,5.7 c 0.08,0.08 0.184,0.12 0.289,0.12 0.105,0 0.211,-0.04 0.289,-0.12 0.16,-0.16 0.16,-0.419 0,-0.579 l -5.115,-5.121 5.115,-5.117 c 0.16,-0.16 0.16,-0.42 0,-0.58 z"
   id="path510"
   inkscape:connector-curvature="0"
   style="fill:#ffffff" />
</g>























































</svg>