<?xml version="1.0" encoding="UTF-8" standalone="no"?>
<!-- Generator: Adobe Illustrator 16.0.0, SVG Export Plug-In . SVG Version: 6.00 Build 0)  -->

<svg
   xmlns:dc="http://purl.org/dc/elements/1.1/"
   xmlns:cc="http://creativecommons.org/ns#"
   xmlns:rdf="http://www.w3.org/1999/02/22-rdf-syntax-ns#"
   xmlns:svg="http://www.w3.org/2000/svg"
   xmlns="http://www.w3.org/2000/svg"
   xmlns:sodipodi="http://sodipodi.sourceforge.net/DTD/sodipodi-0.dtd"
   xmlns:inkscape="http://www.inkscape.org/namespaces/inkscape"
   version="1.1"
   id="Layer_1"
   x="0px"
   y="0px"
   width="17.674"
   height="17.337"
   viewBox="0 0 17.673999 17.337"
   enable-background="new 0 0 595.28 841.89"
   xml:space="preserve"
   sodipodi:docname="Burger.svg"
   inkscape:version="0.92.5 (2060ec1f9f, 2020-04-08)"><metadata
   id="metadata971"><rdf:RDF><cc:Work
       rdf:about=""><dc:format>image/svg+xml</dc:format><dc:type
         rdf:resource="http://purl.org/dc/dcmitype/StillImage" /><dc:title></dc:title></cc:Work></rdf:RDF></metadata><defs
   id="defs969" /><sodipodi:namedview
   pagecolor="#ffffff"
   bordercolor="#666666"
   borderopacity="1"
   objecttolerance="10"
   gridtolerance="10"
   guidetolerance="10"
   inkscape:pageopacity="0"
   inkscape:pageshadow="2"
   inkscape:window-width="1920"
   inkscape:window-height="991"
   id="namedview967"
   showgrid="false"
   inkscape:zoom="2.2425732"
   inkscape:cx="137.01272"
   inkscape:cy="89.538457"
   inkscape:window-x="0"
   inkscape:window-y="28"
   inkscape:window-maximized="1"
   inkscape:current-layer="Layer_1" />






















































<g
   id="g480"
   transform="translate(-96.795,-426.663)">
	<path
   d="m 97.372,427.482 h 16.521 c 0.227,0 0.409,-0.184 0.409,-0.408 0,-0.227 -0.182,-0.411 -0.409,-0.411 H 97.372 c -0.226,0 -0.409,0.185 -0.409,0.411 -10e-4,0.225 0.183,0.408 0.409,0.408 z"
   id="path472"
   inkscape:connector-curvature="0"
   style="fill:#ffffff" />
	<path
   d="M 114.059,432.167 H 97.204 c -0.226,0 -0.409,0.185 -0.409,0.409 0,0.227 0.183,0.41 0.409,0.41 h 16.855 c 0.226,0 0.41,-0.184 0.41,-0.41 -10e-4,-0.224 -0.184,-0.409 -0.41,-0.409 z"
   id="path474"
   inkscape:connector-curvature="0"
   style="fill:#ffffff" />
	<path
   d="M 114.059,437.673 H 97.204 c -0.226,0 -0.409,0.185 -0.409,0.411 0,0.225 0.183,0.409 0.409,0.409 h 16.855 c 0.226,0 0.41,-0.185 0.41,-0.409 -10e-4,-0.227 -0.184,-0.411 -0.41,-0.411 z"
   id="path476"
   inkscape:connector-curvature="0"
   style="fill:#ffffff" />
	<path
   d="m 113.892,443.18 h -16.52 c -0.226,0 -0.409,0.185 -0.409,0.41 0,0.225 0.183,0.41 0.409,0.41 h 16.521 c 0.227,0 0.409,-0.185 0.409,-0.41 0,-0.225 -0.183,-0.41 -0.41,-0.41 z"
   id="path478"
   inkscape:connector-curvature="0"
   style="fill:#ffffff" />
</g>























<g
   id="g672"
   sodipodi:insensitive="true"
   style="display:inline"
   transform="translate(-96.795,-426.663)">
	<path
   d="m 49.2,542.618 h -4.588 c -0.227,0 -0.41,0.184 -0.41,0.408 0,0.226 0.184,0.409 0.41,0.409 H 49.2 c 0.227,0 0.41,-0.184 0.41,-0.409 0,-0.224 -0.183,-0.408 -0.41,-0.408 z"
   id="path634"
   inkscape:connector-curvature="0"
   style="fill:#ffffff" />
	<path
   d="m 49.2,539.864 h -4.588 c -0.227,0 -0.41,0.184 -0.41,0.41 0,0.225 0.184,0.409 0.41,0.409 H 49.2 c 0.227,0 0.41,-0.185 0.41,-0.409 0,-0.226 -0.183,-0.41 -0.41,-0.41 z"
   id="path636"
   inkscape:connector-curvature="0"
   style="fill:#ffffff" />
	<path
   d="m 49.2,537.11 h -4.588 c -0.227,0 -0.41,0.184 -0.41,0.41 0,0.226 0.184,0.409 0.41,0.409 H 49.2 c 0.227,0 0.41,-0.184 0.41,-0.409 0,-0.226 -0.183,-0.41 -0.41,-0.41 z"
   id="path638"
   inkscape:connector-curvature="0"
   style="fill:#ffffff" />
	<path
   d="m 49.2,534.356 h -4.588 c -0.227,0 -0.41,0.185 -0.41,0.41 0,0.227 0.184,0.41 0.41,0.41 H 49.2 c 0.227,0 0.41,-0.184 0.41,-0.41 0,-0.225 -0.183,-0.41 -0.41,-0.41 z"
   id="path640"
   inkscape:connector-curvature="0"
   style="fill:#ffffff" />
	<path
   d="m 56.541,542.618 h -4.587 c -0.227,0 -0.41,0.184 -0.41,0.408 0,0.226 0.184,0.409 0.41,0.409 h 4.587 c 0.227,0 0.411,-0.184 0.411,-0.409 -10e-4,-0.224 -0.184,-0.408 -0.411,-0.408 z"
   id="path642"
   inkscape:connector-curvature="0"
   style="fill:#ffffff" />
	<path
   d="m 56.541,539.864 h -4.587 c -0.227,0 -0.41,0.184 -0.41,0.41 0,0.225 0.184,0.409 0.41,0.409 h 4.587 c 0.227,0 0.411,-0.185 0.411,-0.409 -10e-4,-0.226 -0.184,-0.41 -0.411,-0.41 z"
   id="path644"
   inkscape:connector-curvature="0"
   style="fill:#ffffff" />
	<path
   d="m 56.541,537.11 h -4.587 c -0.227,0 -0.41,0.184 -0.41,0.41 0,0.226 0.184,0.409 0.41,0.409 h 4.587 c 0.227,0 0.411,-0.184 0.411,-0.409 -10e-4,-0.226 -0.184,-0.41 -0.411,-0.41 z"
   id="path646"
   inkscape:connector-curvature="0"
   style="fill:#ffffff" />
	<path
   d="m 56.541,534.356 h -4.587 c -0.227,0 -0.41,0.185 -0.41,0.41 0,0.227 0.184,0.41 0.41,0.41 h 4.587 c 0.227,0 0.411,-0.184 0.411,-0.41 -10e-4,-0.225 -0.184,-0.41 -0.411,-0.41 z"
   id="path648"
   inkscape:connector-curvature="0"
   style="fill:#ffffff" />
	<path
   d="m 56.541,531.604 h -4.587 c -0.227,0 -0.41,0.185 -0.41,0.41 0,0.225 0.184,0.409 0.41,0.409 h 4.587 c 0.227,0 0.411,-0.184 0.411,-0.409 0,-0.225 -0.184,-0.41 -0.411,-0.41 z"
   id="path650"
   inkscape:connector-curvature="0"
   style="fill:#ffffff" />
	<path
   d="m 56.541,528.853 h -4.587 c -0.227,0 -0.41,0.184 -0.41,0.409 0,0.225 0.184,0.409 0.41,0.409 h 4.587 c 0.227,0 0.411,-0.184 0.411,-0.409 0,-0.225 -0.184,-0.409 -0.411,-0.409 z"
   id="path652"
   inkscape:connector-curvature="0"
   style="fill:#ffffff" />
	<path
   d="m 56.541,526.098 h -4.587 c -0.227,0 -0.41,0.185 -0.41,0.409 0,0.227 0.184,0.41 0.41,0.41 h 4.587 c 0.227,0 0.411,-0.184 0.411,-0.41 -10e-4,-0.225 -0.184,-0.409 -0.411,-0.409 z"
   id="path654"
   inkscape:connector-curvature="0"
   style="fill:#ffffff" />
	<path
   d="m 56.541,523.343 h -4.587 c -0.227,0 -0.41,0.186 -0.41,0.412 0,0.225 0.184,0.409 0.41,0.409 h 4.587 c 0.227,0 0.411,-0.185 0.411,-0.409 -10e-4,-0.227 -0.184,-0.412 -0.411,-0.412 z"
   id="path656"
   inkscape:connector-curvature="0"
   style="fill:#ffffff" />
	<path
   d="m 56.541,520.591 h -4.587 c -0.227,0 -0.41,0.184 -0.41,0.41 0,0.225 0.184,0.408 0.41,0.408 h 4.587 c 0.227,0 0.411,-0.184 0.411,-0.408 -10e-4,-0.227 -0.184,-0.41 -0.411,-0.41 z"
   id="path658"
   inkscape:connector-curvature="0"
   style="fill:#ffffff" />
	<path
   d="m 63.882,542.62 h -4.588 c -0.227,0 -0.41,0.184 -0.41,0.408 0,0.226 0.183,0.41 0.41,0.41 h 4.588 c 0.226,0 0.41,-0.185 0.41,-0.41 0,-0.224 -0.184,-0.408 -0.41,-0.408 z"
   id="path660"
   inkscape:connector-curvature="0"
   style="fill:#ffffff" />
	<path
   d="m 63.882,539.865 h -4.588 c -0.227,0 -0.41,0.184 -0.41,0.411 0,0.225 0.183,0.409 0.41,0.409 h 4.588 c 0.226,0 0.41,-0.185 0.41,-0.409 0,-0.227 -0.184,-0.411 -0.41,-0.411 z"
   id="path662"
   inkscape:connector-curvature="0"
   style="fill:#ffffff" />
	<path
   d="m 63.882,537.112 h -4.588 c -0.227,0 -0.41,0.185 -0.41,0.41 0,0.225 0.183,0.409 0.41,0.409 h 4.588 c 0.226,0 0.41,-0.185 0.41,-0.409 0,-0.225 -0.184,-0.41 -0.41,-0.41 z"
   id="path664"
   inkscape:connector-curvature="0"
   style="fill:#ffffff" />
	<path
   d="m 63.882,534.358 h -4.588 c -0.227,0 -0.41,0.185 -0.41,0.41 0,0.227 0.183,0.41 0.41,0.41 h 4.588 c 0.226,0 0.41,-0.184 0.41,-0.41 0,-0.225 -0.184,-0.41 -0.41,-0.41 z"
   id="path666"
   inkscape:connector-curvature="0"
   style="fill:#ffffff" />
	<path
   d="m 63.882,531.605 h -4.588 c -0.227,0 -0.41,0.185 -0.41,0.41 0,0.225 0.183,0.409 0.41,0.409 h 4.588 c 0.226,0 0.41,-0.184 0.41,-0.409 0,-0.225 -0.184,-0.41 -0.41,-0.41 z"
   id="path668"
   inkscape:connector-curvature="0"
   style="fill:#ffffff" />
	<path
   d="m 63.882,528.853 h -4.588 c -0.227,0 -0.41,0.184 -0.41,0.409 0,0.225 0.183,0.409 0.41,0.409 h 4.588 c 0.226,0 0.41,-0.184 0.41,-0.409 0,-0.225 -0.184,-0.409 -0.41,-0.409 z"
   id="path670"
   inkscape:connector-curvature="0"
   style="fill:#ffffff" />
</g>



































</svg>